<?xml version="1.0" encoding="UTF-8"?>
<svg id="Layer_1" xmlns="http://www.w3.org/2000/svg" version="1.1" viewBox="0 0 2597.6 520.2">
  <!-- Generator: Adobe Illustrator 29.0.1, SVG Export Plug-In . SVG Version: 2.1.0 Build 192)  -->
  <defs>
    <style>
      .st0, .st1 {
        font-family: Helvetica-Bold, Helvetica;
        font-size: 313px;
        font-weight: 700;
        isolation: isolate;
      }

      .st0, .st2 {
        fill: #4b2e83;
      }

      .st1, .st3 {
        fill: #ffc700;
      }
    </style>
  </defs>
  <g>
    <text class="st0" transform="translate(661.2 369.7)"><tspan x="0" y="0">RateMy</tspan></text>
    <text class="st1" transform="translate(1762.9 369.7)"><tspan x="0" y="0">Dawg</tspan></text>
  </g>
  <g>
    <g>
      <path class="st3" d="M168.9,264.8c-.1-3.2.5-8.4,5.3-14.6,2.6-1.7,5.2-3.6,7.9-5.7,4.1-3.2,7.6-6.5,10.6-9.6,5.1-3.4,10.2-6.7,15.4-10.1,5.1-3.1,10.2-6.1,15.3-9.2.6-2.1,1.3-4.1,2.1-6.2l11.9-11.3-.6-10.6,7-23.8c7.8-7.8,15.5-15.4,23.3-23.2.4-14,.8-28,1.2-41.8l-2.2-28.2h0l32,19c3.9,3.1,7.9,6.2,11.8,9.3,2.2,1.7,4.4,3.5,6.5,5.3,2.6,2.6,5.1,5.3,7.6,7.9,2.2,4,4.4,8,6.6,12h16.4l5.5-17c4-13.5,8.2-26.9,12.2-40.4,10.4,10.8,20.6,21.5,31,32.2,4,14.9,8.2,29.7,12.3,44.6,7.8,6.2,15.7,12.5,23.6,18.7l75.1,134.7-43.3,132.8-16.1,9.9-26.7,8c2.3-9.5,4.5-18.8,6.9-28.3-.8-3.4-1.6-6.7-2.3-10.1.4-1.8.6-3.6.9-5.7.6-6.4,0-11.9-.8-16.5-2.2-5.2-4.5-10.4-6.7-15.6l-9.6,21.4-21.3,37-31.1,17.7-21.7,11.8c-3.1-10.9-6.4-21.8-9.5-32.6,3.9-10.1,7.9-20.2,11.8-30.4l8.4-4.4,4.5-16.2c.4-3.9.8-7.8,1.2-11.8.5-5.7.9-11.4,1.4-17.1-.9-5.1-1.8-10.1-2.7-15.2-.1-1.4-.4-2.9-.8-4.4-3-12.2-11.8-20.1-17.4-24.3-2.5-1.9-4.8-3.9-7.3-5.8h-15l-14.6,10h-21.1c-7,2.3-14,4.8-20.9,7.3-8.2.8-16.3,1.4-24.6,2.2-8.3-4.7-16.4-9.3-24.7-14-3,.5-7.4.8-11.5-1.3-4.8-2.5-5.6-6.1-11-15.4-7.9-13.5-11.5-14.4-11.9-20.7h0l-.3-.3Z"/>
      <g>
        <path class="st2" d="M323.8,369.7c-1.2,17.3-10.4,33.3-25.1,43.7,5.3,2.2,23-1.3,37.3-12.2,6-4.7-2.3-8.5,1.2-16"/>
        <path class="st2" d="M272.4,135.8c-25.8,15-37,38-42.2,65.3-.8,4,5.7,5.7,6.5,1.7,4.9-25.8,14.7-47.4,39-61.4,3.8-2.2.3-7.7-3.4-5.6h0Z"/>
        <path class="st2" d="M230.7,201c-9.2,29.1-49.6,27.7-61.5,52.3-7.3,15.5,6.4,27.7,12.1,40.9,7.5,17,13.7,19.4,31.7,27.5,29.3,13.1,58.8-11.5,88.7-3,1.8.1,3.5-1,3.8-2.9.1-1.4-.7-2.7-2-3.3-20-5.7-34.9,1.2-54.5,4.8-24.1,4.3-48.4-6-61.3-25.8-9.4-14.8-19.4-28.5.7-46.7,6.8-6.1,18.5-9.8,26.2-15.5,10.3-7.3,18.7-14.7,22.5-26.5.3-1.8-1.2-3.4-3-3.6-1.4-.1-2.9.7-3.5,1.8h0c0-.1.1,0,.1,0Z"/>
        <path class="st2" d="M274.5,82.8l31.4,21.1c2.3,1.3,4.7,3,7.3,4.9,6.2,5.1,10.4,10.5,13,14.8,1.6,0,3.3,0,4.8-.1-3-6.9-8.6-17-18.6-26.7-5.6-5.2-11.1-9-15.7-11.6l-33.6-22.5c1.6,28.4,2.5,56.9,2.5,85.4l11.2-6.9c-.3-19.5-.9-38.9-2.1-58.3h-.1Z"/>
        <path class="st2" d="M195.7,310.6c10.4-.3,19.1,6.1,28.2,10,4.6,2.1,9.5,3.5,14.6,3.9,5.7,0,11.3-1,16.5-3.1,12.6-4,25.6-7.2,38.8-9.4,11.6-2,23.3,1.4,31.7,9.1,4.6,4,11.3-2.5,6.8-6.5-8.3-7.5-19.3-12-30.8-12.5-6.5.1-13,1-19.3,2.7-7.2,1.4-14.3,3.1-21.2,5.2-6.4,2.5-13.1,4.3-20,5.3-5.3,0-10.7-1.4-15.4-3.9-9.6-4.4-18.9-10.3-30.1-9.8-2.6,0-4.8,2.1-4.8,4.6s2.1,4.6,4.8,4.6h0c0-.1.1-.3.1-.3Z"/>
        <path class="st2" d="M269.1,74c3.5,20.6,9.6,50.2,1.3,70.5l4,.5c-1.8-15.1,2.3-29.8,1.3-44.9,0-2.5-4.2-2.5-4,0,1,15.1-3.1,29.8-1.3,44.9,0,1,1,2,2.2,1.8.8,0,1.6-.5,1.8-1.3,8.8-21.5,2.5-50.5-1.3-72.6-.4-2.5-4.3-1.4-3.9,1h-.1Z"/>
        <path class="st2" d="M181.9,244.6c15.7,2.6,43.2-5.1,45.4-6.4,5.7-3,10.9-6.9,15.4-11.6l12.1-9.4c8.2-5.6,15.1-12.5,20.6-20.6-6.1-1.6-12.4-2.3-18.7-2.5-6.4,0-12.5,2-17.4,5.9-2.2,2.1-4.3,4.4-6,6.9-10.4,13.5-23.8,24.9-39.3,32.9"/>
        <path class="st2" d="M176.2,266.9c-.7,3.3-.3,6.6,1.3,9.6"/>
        <path class="st2" d="M173.9,266.3c-.8,3.8-.3,7.8,1.6,11.3,1.3,2.7,5.3.4,4.2-2.3-1.2-2.5-1.6-5.2-1-7.8.5-2.9-4.2-4.2-4.7-1.2h0Z"/>
        <path class="st2" d="M175.4,252c9.8-7.8,22.6-11.2,32.4-18.7"/>
        <path class="st2" d="M177.1,254c9.9-7.4,22.1-11.1,32.4-18.3,2.5-1.7,0-5.7-2.5-3.9-10.4,7.4-22.9,11.3-33.2,19-2.5,1.8,1,5.1,3.4,3.3h-.3.1Z"/>
        <path class="st2" d="M241,206.6c1.3-.1,2.2-1.4,2.1-2.6-.1-1-1-1.8-2.1-2-1.3.1-2.2,1.4-2.1,2.6.1,1,1,1.8,2.1,2Z"/>
        <path class="st2" d="M256.8,211.3c13.4-7.9,24.7-18.3,33.4-30.8,4.2-5.7.9-30.8,3.3-37.7s-14.3.5-15.2-6.6c-.4-2.9-3.4-2.6-4.8,0-4.6,8.6-2.5,11.1-4.7,17.3-2.2,6.2-4.7,13.5-6.8,19.1-2.9,10.5-9.8,19.8-19.4,25.8-2.6,1.7,0,6.2,2.7,4.9l11.3,8.2h.1Z"/>
        <path class="st2" d="M240.6,205.7c.9-25.2,12.5-48.5,35.5-61.7,2.6-1.6,0-5.5-2.5-3.9-24.6,14.2-37,39-37.9,65.8,0,2.9,4.7,2.9,4.8,0v-.3h0Z"/>
        <path class="st2" d="M413.4,145l-9.2-30.2c-1.3-4.8-3-9.5-5.1-14.1-6.9-14.6-20.2-25.2-33.3-35.1l-.8.8c-10.8,16.1-14.6,35.3-18.5,53.9-1.2,4.4-1.7,9-1.6,13.7.4,4.4,1.7,8.7,3.9,12.8.8,1.7,1.7,3.3,2.7,4.8v-.4c0-3.8.3-7.5,1.3-11.2,3.3-15.5,6.5-30.8,15.1-43.8l.7-.5c10.8,8.1,21.6,16.7,27.1,28.5,1.7,3.8,3,7.5,4.2,11.5l7.5,24.6c1.3,3.1,1.3,6.5,0,9.6,3.3-1.4,4.7-9.9,6.4-12.9,1.6-3.8,1.6-7.9,0-11.8h-.4Z"/>
        <path class="st2" d="M350.6,123.4c-22.1-.4-44.8,0-65.3,7.8-3.4,1-6.5,2.9-9.1,5.1-2.6,2.5-3.6,6-2.7,9.2,1.4,3.3,4.6,5.6,8.3,6.1,3.5.8,10.3,20.6,10.8,17.3,1.3-9.5,13.5-15.9,20.3-15.5,6.6.7,13.4-.3,19.6-2.9,6.5-3.8,12.1-8.8,16.3-15,1.6-1.8,2.9-3.8,3.6-6,.8-2.2.3-4.8-1.3-6.6"/>
        <path class="st2" d="M309.7,153.8c35.9-1.3,25.1,21.6,27.1,33.6,23.8-24.1,15.4-47.9,1.2-56.6-6.5-4-11.2,22-18.5,17.6"/>
        <path class="st2" d="M270.3,80c6.1,17.6,3.3,37.1,5.3,55.4.3,2.9,5.3,2.9,4.8,0-2.2-18.7.8-38.6-5.3-56.6-1-2.7-5.3-1.6-4.7,1.2h-.1,0Z"/>
        <path class="st2" d="M402.6,145.9c4.7,10.7,4.8,30.2,2.1,34.6,3,0,15.4-9.6,15-19,0-3.9-6.4-1-6.4-5.1"/>
        <path class="st2" d="M411.3,172.8c25.8,47.6,21.6,79.6-3.3,101.2,21.5-3.8,70.8-7.9,62.7-62.7"/>
        <path class="st2" d="M313.5,190.8l3.1-4.2c.8-.8,1-1.8.8-2.9l-.4-3.3c-4.9,3-9.6,6.4-13.8,10.3-2.6,1.8-5.3,3.6-8.1,5.1-1.6.9-3.1,1.8-4.7,2.5-2.2.9-4.7,1.4-7,1.6-2.7.4-5.6-.8-7.2-2.9l-12.6,11.8c.3,1.2.7,2.2,1.2,3.1.4.7,3.1,4.9,3.1,4.9.8-1.8,2-3.4,3.5-4.7,1.8-1.7,4-3,6.4-4,2.7-1.3,5.7-2,8.8-2.1,1.8,0,3.6.5,5.3.5,2.3.1,4.6.1,6.9,0,1,0,4.7-.7,6.1-.8,6.1-.7,11.6-3.8,15.2-8.6,1.3-1.6,2.3-3.3,3.1-5.1-3.3-.9-6.6-1.4-9.9-1.4h0ZM302.7,201c0-2,0-3.9.7-5.7,1-2,8.6-1.8,12,.4-3,3.6-7.7,5.7-12.5,5.3h-.1Z"/>
        <path class="st2" d="M407.6,142.9l2.2,28.5c8.6,12.5,42.2,71.4,53.3,100.1,10.8,4.3,31.2,0,32.4-9.1-18.7-74.8-73.1-105.4-88-119.3h0Z"/>
        <path class="st2" d="M412.6,175.7c18.2,33.7,15,56.2-2.3,71.7,15.1-2.6,50.1-5.7,44.2-44.2"/>
        <path class="st2" d="M461,266.5c8.8,26.9,13.5,62.1-7.3,80.4,21.6,5.2,59.5.7,52.4-45.4"/>
        <path class="st2" d="M490.8,245l-37.9,2.5c38.5,80.8,22.6,145.5-15.4,161.9,9.2-18,0-58.9-21.6-76.2-19.5,68.3-69.6,97.8-87.8,99.1,13.4-25.4,52.8-101.1-7-148.5-12.1,10.8-25.1,18-28.2,18h0c-3.8,4.2-7,8.7-9.9,13.5,20.8,0,27.1,9,32,18.1,5.1,9.1,7.9,19.1,8.3,29.3,1.6,37.9-12,74.9-37.9,103.7,62.6,9.8,121.7-30.7,131.9-90.3.3-1.6.5-3.1.7-4.7,12.4,27.1,7.8,58.3-11.8,81.1,23.9,2.2,45.9-9,63.9-24.1,37.7-32,61.7-74.4,20.4-183.3h.3Z"/>
        <path class="st2" d="M205.2,251.4c-3.6,1.2-7.4,1.8-11.3,2.3-6.2-.1-12.5-.9-18.5-2.5l-3,13.5c.4.5,8.6,18.3,9,18.7,4,3.9,11.7,6.1,16.5,9.2l1.4-17c0-.9.5-1.8,1.3-2.6,2-2.1,4.6-.8,6.1.9,1.6,1.8,3.3,3.5,5.1,5.1.3,0,0-.5.7-1.4,0-.3.3-.7.4-.9,4.9-9.2,7.9-19.4,9-29.8l-16.5,4.3h-.1ZM202.6,261.4c-.5,1.2-1.4,2.1-2.6,2.9-.7.3-1.4.5-2.2.7-2.1.4-4,.8-6.1.9-3.9.3-7.9-.4-11.5-2-.9-.4-1.8-.9-2.5-1.6-.9-1-1.2-2.2-2.3-2.9,5.1-.3,10,.5,15.1.7,4-.1,7.9.1,11.8.9h.3c.1.1,0,.4,0,.5h0Z"/>
      </g>
    </g>
    <g>
      <path class="st3" d="M30.7,7c-13.1,0-20.9,8.8-23.5,26.1-1.7,19.2-1.7,38.8,0,58.8,1.7,17.4,9.5,27.4,23.5,30.1h66.1l38,38h6.3l6.3-38h46.6c14.8-2.6,22.6-12.7,23.5-30.1,1.7-20,1.3-39.6-1.3-58.8-1.7-17.4-9.1-26.1-22.2-26.1H30.7Z"/>
      <path class="st2" d="M30.7,0C15,.9,5.5,10.8,2,30-.7,50.9-.7,72.8,2,95.3c3.5,20,13.1,31,28.7,32.7h62.7l37.9,39.2c4.3,4.3,8.8,4.3,13.1,0l6.5-39.2h43.1c17.4-1.7,27.4-12.7,30-32.7,2.6-22.6,2.6-44.4,0-65.3-3.5-19.2-13.5-29.1-30-30H30.7ZM31,9h162.7c11.3.9,18.2,8.7,20.8,23.4,1.7,19.1,1.7,38.6,0,58.6-1.7,16.5-8.7,25.1-20.8,26h-50.7c-3.5,0-5.6,1.7-6.5,5.2l-3.9,29.9-29.9-31.2c-1.7-2.6-3.9-3.9-6.5-3.9H31c-12.1-.9-19.1-9.5-20.8-26-1.7-19.9-1.7-39.4,0-58.6,2.6-14.7,9.5-22.5,20.8-23.4Z"/>
      <path class="st2" d="M54.4,39.4l6.5,16.9,18.2,1.3-14.3,11.7,5.2,18.2-15.6-10.4-15.6,10.4,5.2-18.2-14.3-11.7,18.2-1.3,6.5-16.9Z"/>
      <path class="st2" d="M113,32.9l7.8,19.5,20.8,1.3-15.6,13,5.2,20.8-18.2-11.7-18.2,11.7,5.2-20.8-15.6-13,20.8-1.3,7.8-19.5Z"/>
      <path class="st2" d="M171.5,39.4l6.5,16.9,18.2,1.3-14.3,11.7,5.2,18.2-15.6-10.4-15.6,10.4,5.2-18.2-14.3-11.7,18.2-1.3,6.5-16.9Z"/>
    </g>
  </g>
</svg>