<?xml version="1.0" encoding="UTF-8"?>
<svg id="Layer_1" xmlns="http://www.w3.org/2000/svg" version="1.1" width="512" height="512" viewBox="0 -17.05 393.5 393.5">
  <!-- Generator: Adobe Illustrator 29.0.1, SVG Export Plug-In . SVG Version: 2.1.0 Build 192)  -->
  <defs>
    <style>
      .st0 {
        fill: #4b2e83;
      }

      .st1 {
        fill: #ffc700;
      }
    </style>
  </defs>
  <g>
    <path class="st1" d="M129.2,203.5c-.1-2.5.4-6.5,4.1-11.3,2-1.3,4-2.8,6.1-4.4,3.2-2.5,5.9-5,8.2-7.4,3.9-2.6,7.9-5.2,11.9-7.8,3.9-2.4,7.9-4.7,11.8-7.1.5-1.6,1-3.2,1.6-4.8l9.2-8.7-.5-8.2,5.4-18.4c6-6,12-11.9,18-17.9.3-10.8.6-21.6.9-32.3l-1.7-21.8h0l24.7,14.7c3,2.4,6.1,4.8,9.1,7.2,1.7,1.3,3.4,2.7,5,4.1,2,2,3.9,4.1,5.9,6.1,1.7,3.1,3.4,6.2,5.1,9.3,4.1,0,8.1,0,12.2,0l4.2-13.1c3.1-10.4,6.3-20.7,9.4-31.1,8,8.3,15.9,16.6,23.9,24.8,3.1,11.5,6.3,22.9,9.5,34.4,6,4.8,12.1,9.6,18.2,14.4l57.9,103.8-33.4,102.3-12.4,7.6-20.6,6.2c1.8-7.3,3.5-14.5,5.3-21.8-.6-2.6-1.2-5.2-1.8-7.8.3-1.4.5-2.8.7-4.4.5-4.9,0-9.2-.6-12.7-1.7-4-3.5-8-5.2-12l-7.4,16.5-16.4,28.5-24,13.6-16.7,9.1c-2.4-8.4-4.9-16.8-7.3-25.1,3-7.8,6.1-15.6,9.1-23.4l6.5-3.4,3.5-12.5c.3-3,.6-6,.9-9.1.4-4.4.7-8.8,1.1-13.2-.7-3.9-1.4-7.8-2.1-11.7-.1-1.1-.3-2.2-.6-3.4-2.3-9.4-9.1-15.5-13.4-18.7-1.9-1.5-3.7-3-5.6-4.5h-11.1l-11.7,8h-15.9c-5.4,1.8-10.8,3.7-16.1,5.6-6.3.6-12.6,1.1-19,1.7-6.4-3.6-12.7-7.2-19.1-10.8-2.3.4-5.7.6-8.9-1-3.7-1.9-4.3-4.7-8.5-11.9-6.1-10.4-8.9-11.1-9.2-16h0Z"/>
    <g>
      <path class="st0" d="M248.5,283.8c-.9,13.3-8,25.6-19.3,33.6,4.1,1.7,17.7-1,28.7-9.4,4.6-3.6-1.8-6.5.9-12.3"/>
      <path class="st0" d="M209,104.1c-19.8,11.5-28.4,29.2-32.4,50.2-.6,3.1,4.4,4.4,5,1.3,3.8-19.8,11.3-36.4,30-47.2,2.9-1.7.2-5.9-2.6-4.3h0Z"/>
      <path class="st0" d="M176.6,154.2c-7.1,22.4-38.1,21.3-47.3,40.2-5.6,11.9,4.9,21.3,9.3,31.4,5.8,13.1,10.5,14.9,24.4,21.1,22.5,10.1,45.2-8.8,68.2-2.3,1.4.1,2.7-.8,2.9-2.2.1-1.1-.5-2.1-1.5-2.5-15.4-4.4-26.8.9-41.9,3.7-18.5,3.3-37.2-4.6-47.1-19.8-7.2-11.4-14.9-21.9.5-35.9,5.2-4.7,14.2-7.5,20.1-11.9,7.9-5.6,14.4-11.3,17.3-20.4.2-1.4-.9-2.6-2.3-2.8-1.1-.1-2.2.5-2.7,1.4h0c0-.1,0-.1,0-.1Z"/>
      <path class="st0" d="M210.6,63.3l24.1,16.2c1.8,1,3.6,2.3,5.6,3.8,4.8,3.9,8,8.1,10,11.4,1.2,0,2.5,0,3.7-.1-2.3-5.3-6.6-13.1-14.3-20.5-4.3-4-8.5-6.9-12.1-8.9l-25.8-17.3c1.2,21.8,1.9,43.7,1.9,65.6l8.6-5.3c-.2-15-.7-29.9-1.6-44.8h0Z"/>
      <path class="st0" d="M150,238.4c8-.2,14.7,4.7,21.7,7.7,3.5,1.6,7.3,2.7,11.2,3,4.4,0,8.7-.8,12.7-2.4,9.7-3.1,19.7-5.5,29.8-7.2,8.9-1.5,17.9,1.1,24.4,7,3.5,3.1,8.7-1.9,5.2-5-6.4-5.8-14.8-9.2-23.7-9.6-5,.1-10,.8-14.8,2.1-5.5,1.1-11,2.4-16.3,4-4.9,1.9-10.1,3.3-15.4,4.1-4.1,0-8.2-1.1-11.8-3-7.4-3.4-14.5-7.9-23.1-7.5-2,0-3.7,1.6-3.7,3.5s1.6,3.5,3.7,3.5h0c0-.1,0-.1,0-.1Z"/>
      <path class="st0" d="M206.5,56.6c2.7,15.8,7.4,38.6,1,54.2l3.1.4c-1.4-11.6,1.8-22.9,1-34.5,0-1.9-3.2-1.9-3.1,0,.8,11.6-2.4,22.9-1,34.5,0,.8.8,1.5,1.7,1.4.6,0,1.2-.4,1.4-1,6.8-16.5,1.9-38.8-1-55.8-.3-1.9-3.3-1.1-3,.8h0Z"/>
      <path class="st0" d="M139.5,187.7c12.1,2,33.2-3.9,34.9-4.9,4.4-2.3,8.4-5.3,11.8-8.9l9.3-7.2c6.3-4.3,11.6-9.6,15.8-15.8-4.7-1.2-9.5-1.8-14.4-1.9-4.9,0-9.6,1.5-13.4,4.5-1.7,1.6-3.3,3.4-4.6,5.3-8,10.4-18.3,19.1-30.2,25.3"/>
      <path class="st0" d="M135.1,204.8c-.5,2.5-.2,5.1,1,7.4"/>
      <path class="st0" d="M133.3,204.4c-.6,2.9-.2,6,1.2,8.7,1,2.1,4.1.3,3.2-1.8-.9-1.9-1.2-4-.8-6,.4-2.2-3.2-3.2-3.6-.9h0s0,0,0,0Z"/>
      <path class="st0" d="M134.5,193.4c7.5-6,17.4-8.6,24.9-14.4"/>
      <path class="st0" d="M135.8,194.6c7.6-5.7,17-8.5,24.9-14.1,1.9-1.3,0-4.4-1.9-3-8,5.7-17.6,8.7-25.5,14.6-1.9,1.4.8,3.9,2.6,2.5h-.2Z"/>
      <path class="st0" d="M184.9,158.5c1-.1,1.7-1.1,1.6-2-.1-.8-.8-1.4-1.6-1.5-1,.1-1.7,1.1-1.6,2,.1.8.8,1.4,1.6,1.5Z"/>
      <path class="st0" d="M197,162.1c10.3-6.1,19-14.1,25.7-23.7,3.2-4.4.7-23.7,2.5-29s-11,.4-11.7-5.1c-.3-2.2-2.6-2-3.7,0-3.5,6.6-1.9,8.5-3.6,13.3-1.7,4.8-3.6,10.4-5.2,14.7-2.2,8.1-7.5,15.2-14.9,19.8-2,1.3,0,4.8,2.1,3.8l8.7,6.3h0Z"/>
      <path class="st0" d="M184.7,157.8c.7-19.4,9.6-37.3,27.3-47.4,2-1.2,0-4.2-1.9-3-18.9,10.9-28.4,30-29.1,50.6,0,2.2,3.6,2.2,3.7,0v-.2h0Z"/>
      <path class="st0" d="M317.1,110.8l-7.1-23.2c-1-3.7-2.3-7.3-3.9-10.8-5.3-11.2-15.5-19.4-25.6-27l-.6.6c-8.3,12.4-11.2,27.1-14.2,41.4-.9,3.4-1.3,6.9-1.2,10.5.3,3.4,1.3,6.7,3,9.8.6,1.3,1.3,2.5,2.1,3.7v-.3c0-2.9.2-5.8,1-8.6,2.5-11.9,5-23.7,11.6-33.7l.5-.4c8.3,6.2,16.6,12.8,20.8,21.9,1.3,2.9,2.3,5.8,3.2,8.8l5.8,18.9c1,2.4,1,5,0,7.4,2.5-1.1,3.6-7.6,4.9-9.9,1.2-2.9,1.2-6.1,0-9.1h0Z"/>
      <path class="st0" d="M269.1,94.5c-17-.3-34.4,0-50.2,6-2.6.8-5,2.2-7,3.9-2,1.9-2.8,4.6-2.1,7.1,1.1,2.5,3.5,4.3,6.4,4.7,2.7.6,7.9,15.8,8.3,13.3,1-7.3,10.4-12.2,15.6-11.9,5.1.5,10.3-.2,15.1-2.2,5-2.9,9.3-6.8,12.5-11.5,1.2-1.4,2.2-2.9,2.8-4.6.6-1.7.2-3.7-1-5.1"/>
      <path class="st0" d="M237.7,117.9c27.6-1,19.3,16.6,20.8,25.8,18.3-18.5,11.8-36.8.9-43.5-5-3.1-8.6,16.9-14.2,13.5"/>
      <path class="st0" d="M207.4,61.4c4.7,13.5,2.5,28.5,4.1,42.6.2,2.2,4.1,2.2,3.7,0-1.7-14.4.6-29.7-4.1-43.5-.8-2.1-4.1-1.2-3.6.9h-.1s0,0,0,0Z"/>
      <path class="st0" d="M309.1,111.8c3.6,8.2,3.7,23.2,1.6,26.6,2.3,0,11.8-7.4,11.5-14.6,0-3-4.9-.8-4.9-3.9"/>
      <path class="st0" d="M315.8,132.5c19.8,36.6,16.6,61.2-2.5,77.8,16.5-2.9,54.4-6.1,48.2-48.2"/>
      <path class="st0" d="M240.6,146.3l2.4-3.2c.6-.6.8-1.4.6-2.2l-.3-2.5c-3.8,2.3-7.4,4.9-10.6,7.9-2,1.4-4.1,2.8-6.2,3.9-1.2.7-2.4,1.4-3.6,1.9-1.7.7-3.6,1.1-5.4,1.2-2.1.3-4.3-.6-5.5-2.2l-9.7,9.1c.2.9.5,1.7.9,2.4.3.5,2.4,3.8,2.4,3.8.6-1.4,1.5-2.6,2.7-3.6,1.4-1.3,3.1-2.3,4.9-3.1,2.1-1,4.4-1.5,6.8-1.6,1.4,0,2.8.4,4.1.4,1.8.1,3.5.1,5.3,0,.8,0,3.6-.5,4.7-.6,4.7-.5,8.9-2.9,11.7-6.6,1-1.2,1.8-2.5,2.4-3.9-2.5-.7-5.1-1.1-7.6-1.1h0ZM232.3,154.2c0-1.5,0-3,.5-4.4.8-1.5,6.6-1.4,9.2.3-2.3,2.8-5.9,4.4-9.6,4.1h0Z"/>
      <path class="st0" d="M313.2,109.5l1.7,21.9c6.6,9.6,32.4,54.9,41,76.9,8.3,3.3,24,0,24.9-7-14.4-57.5-56.2-81-67.6-91.7h0Z"/>
      <path class="st0" d="M316.8,134.7c14,25.9,11.5,43.2-1.8,55.1,11.6-2,38.5-4.4,34-34"/>
      <path class="st0" d="M354,204.5c6.8,20.7,10.4,47.7-5.6,61.8,16.6,4,45.7.5,40.3-34.9"/>
      <path class="st0" d="M376.9,188.1l-29.1,1.9c29.6,62.1,17.4,111.8-11.8,124.4,7.1-13.8,0-45.3-16.6-58.6-15,52.5-53.5,75.2-67.5,76.2,10.3-19.5,40.6-77.7-5.4-114.1-9.3,8.3-19.3,13.8-21.7,13.8h0c-2.9,3.2-5.4,6.7-7.6,10.4,16,0,20.8,6.9,24.6,13.9,3.9,7,6.1,14.7,6.4,22.5,1.2,29.1-9.2,57.6-29.1,79.7,48.1,7.5,93.5-23.6,101.4-69.4.2-1.2.4-2.4.5-3.6,9.5,20.8,6,44.8-9.1,62.3,18.4,1.7,35.3-6.9,49.1-18.5,29-24.6,47.4-57.2,15.7-140.9h0Z"/>
      <path class="st0" d="M157.4,192.9c-2.8.9-5.7,1.4-8.7,1.8-4.8-.1-9.6-.7-14.2-1.9l-2.3,10.4c.3.4,6.6,14.1,6.9,14.4,3.1,3,9,4.7,12.7,7.1l1.1-13.1c0-.7.4-1.4,1-2,1.5-1.6,3.5-.6,4.7.7,1.2,1.4,2.5,2.7,3.9,3.9.2,0,0-.4.5-1.1,0-.2.2-.5.3-.7,3.8-7.1,6.1-14.9,6.9-22.9l-12.7,3.3h0ZM155.2,200.5c-.4.9-1.1,1.6-2,2.2-.5.2-1.1.4-1.7.5-1.6.3-3.1.6-4.7.7-3,.2-6.1-.3-8.8-1.5-.7-.3-1.4-.7-1.9-1.2-.7-.8-.9-1.7-1.8-2.2,3.9-.2,7.7.4,11.6.5,3.1-.1,6.1.1,9.1.7,0,0,.2,0,.2,0,.1.1,0,.3,0,.4h0,0Z"/>
    </g>
  </g>
  <g>
    <path class="st1" d="M23.5,5c-10,0-16,6.7-18,20-1.3,14.7-1.3,29.7,0,45,1.3,13.3,7.3,21,18,23h50l30,30h5l5-30h35c11.3-2,17.3-9.7,18-23,1.3-15.3,1-30.3-1-45-1.3-13.3-7-20-17-20H23.5Z"/>
    <path class="st0" d="M23.5,0C11.5.7,4.2,8.3,1.5,23-.5,39-.5,55.7,1.5,73c2.7,15.3,10,23.7,22,25h48l29,30c3.3,3.3,6.7,3.3,10,0l5-30h33c13.3-1.3,21-9.7,23-25,2-17.3,2-34,0-50-2.7-14.7-10.3-22.3-23-23H23.5ZM23.5,7h125c8.7.7,14,6.7,16,18,1.3,14.7,1.3,29.7,0,45-1.3,12.7-6.7,19.3-16,20h-39c-2.7,0-4.3,1.3-5,4l-3,23-23-24c-1.3-2-3-3-5-3H23.5c-9.3-.7-14.7-7.3-16-20-1.3-15.3-1.3-30.3,0-45C9.5,13.7,14.8,7.7,23.5,7Z"/>
    <path class="st0" d="M41.5,30l5,13,14,1-11,9,4,14-12-8-12,8,4-14-11-9,14-1,5-13Z"/>
    <path class="st0" d="M86.5,25l6,15,16,1-12,10,4,16-14-9-14,9,4-16-12-10,16-1,6-15Z"/>
    <path class="st0" d="M131.5,30l5,13,14,1-11,9,4,14-12-8-12,8,4-14-11-9,14-1,5-13Z"/>
  </g>
</svg>